<svg xmlns="http://www.w3.org/2000/svg" viewBox="195 292 874 582" width="874" height="582" role="img" aria-label="Ant logo">
  <path d="M 797.0 706.0 L 809.0 720.0 L 824.0 734.0 L 846.0 749.0 L 867.0 760.0 L 868.0 770.0 L 872.0 779.0 L 883.0 790.0 L 895.0 795.0 L 901.0 795.0 L 902.0 796.0 L 914.0 794.0 L 923.0 789.0 L 933.0 778.0 L 938.0 763.0 L 938.0 756.0 L 936.0 748.0 L 931.0 739.0 L 920.0 729.0 L 910.0 725.0 L 895.0 725.0 L 885.0 729.0 L 880.0 733.0 L 878.0 733.0 L 859.0 723.0 L 846.0 714.0 L 819.0 687.0 Z
    M 896.0 749.0 L 898.0 748.0 L 906.0 748.0 L 912.0 752.0 L 915.0 758.0 L 915.0 762.0 L 910.0 770.0 L 906.0 772.0 L 899.0 772.0 L 896.0 771.0 L 892.0 767.0 L 890.0 763.0 L 890.0 757.0 L 891.0 754.0 Z
    M 617.0 643.0 L 616.0 642.0 L 603.0 642.0 L 602.0 641.0 L 593.0 641.0 L 592.0 640.0 L 589.0 641.0 L 586.0 662.0 L 582.0 678.0 L 579.0 685.0 L 579.0 688.0 L 566.0 716.0 L 556.0 732.0 L 546.0 745.0 L 519.0 771.0 L 499.0 785.0 L 475.0 798.0 L 453.0 786.0 L 451.0 786.0 L 440.0 780.0 L 435.0 779.0 L 424.0 774.0 L 408.0 770.0 L 404.0 768.0 L 392.0 765.0 L 382.0 764.0 L 381.0 763.0 L 362.0 761.0 L 361.0 760.0 L 352.0 760.0 L 351.0 759.0 L 300.0 759.0 L 299.0 760.0 L 290.0 760.0 L 289.0 761.0 L 276.0 762.0 L 275.0 763.0 L 270.0 763.0 L 269.0 764.0 L 246.0 768.0 L 239.0 760.0 L 233.0 756.0 L 225.0 753.0 L 213.0 752.0 L 205.0 754.0 L 197.0 758.0 L 187.0 768.0 L 182.0 781.0 L 182.0 795.0 L 184.0 802.0 L 187.0 808.0 L 194.0 816.0 L 202.0 821.0 L 208.0 823.0 L 217.0 824.0 L 218.0 823.0 L 225.0 823.0 L 236.0 818.0 L 245.0 809.0 L 250.0 798.0 L 253.0 796.0 L 273.0 793.0 L 274.0 792.0 L 279.0 792.0 L 280.0 791.0 L 294.0 790.0 L 295.0 789.0 L 308.0 789.0 L 309.0 788.0 L 354.0 789.0 L 355.0 790.0 L 363.0 790.0 L 364.0 791.0 L 381.0 793.0 L 386.0 795.0 L 402.0 798.0 L 415.0 803.0 L 418.0 803.0 L 431.0 808.0 L 457.0 821.0 L 469.0 829.0 L 477.0 829.0 L 502.0 817.0 L 528.0 801.0 L 551.0 782.0 L 572.0 759.0 L 590.0 732.0 L 604.0 703.0 L 614.0 668.0 Z
    M 218.0 775.0 L 223.0 777.0 L 227.0 781.0 L 229.0 785.0 L 229.0 790.0 L 227.0 795.0 L 223.0 799.0 L 216.0 801.0 L 210.0 799.0 L 206.0 795.0 L 204.0 791.0 L 204.0 785.0 L 205.0 782.0 L 210.0 777.0 Z
    M 664.0 633.0 L 662.0 636.0 L 665.0 641.0 L 665.0 643.0 L 676.0 664.0 L 689.0 681.0 L 706.0 697.0 L 717.0 705.0 L 724.0 708.0 L 733.0 714.0 L 753.0 743.0 L 777.0 784.0 L 800.0 829.0 L 794.0 840.0 L 792.0 847.0 L 792.0 858.0 L 795.0 868.0 L 798.0 873.0 L 808.0 883.0 L 821.0 888.0 L 833.0 888.0 L 840.0 886.0 L 849.0 881.0 L 855.0 875.0 L 859.0 869.0 L 862.0 861.0 L 863.0 850.0 L 862.0 849.0 L 861.0 841.0 L 855.0 830.0 L 849.0 824.0 L 840.0 819.0 L 833.0 817.0 L 826.0 817.0 L 823.0 810.0 L 798.0 762.0 L 781.0 733.0 L 764.0 707.0 L 755.0 695.0 L 749.0 689.0 L 734.0 681.0 L 723.0 673.0 L 708.0 658.0 L 696.0 640.0 L 688.0 623.0 L 678.0 628.0 Z
    M 824.0 840.0 L 831.0 840.0 L 835.0 842.0 L 840.0 849.0 L 839.0 858.0 L 833.0 864.0 L 830.0 865.0 L 824.0 865.0 L 820.0 863.0 L 815.0 856.0 L 815.0 849.0 L 817.0 845.0 Z
    M 715.0 606.0 L 728.0 619.0 L 748.0 634.0 L 774.0 650.0 L 790.0 658.0 L 792.0 658.0 L 809.0 666.0 L 834.0 674.0 L 846.0 676.0 L 851.0 678.0 L 869.0 680.0 L 870.0 681.0 L 889.0 682.0 L 890.0 683.0 L 931.0 682.0 L 932.0 681.0 L 939.0 681.0 L 940.0 680.0 L 945.0 680.0 L 946.0 679.0 L 966.0 676.0 L 974.0 673.0 L 981.0 672.0 L 994.0 667.0 L 996.0 667.0 L 1002.0 673.0 L 1014.0 678.0 L 1020.0 678.0 L 1021.0 679.0 L 1030.0 678.0 L 1040.0 674.0 L 1050.0 665.0 L 1056.0 654.0 L 1057.0 650.0 L 1057.0 635.0 L 1051.0 622.0 L 1042.0 613.0 L 1034.0 609.0 L 1026.0 607.0 L 1014.0 608.0 L 1001.0 614.0 L 992.0 624.0 L 989.0 630.0 L 987.0 639.0 L 980.0 642.0 L 973.0 643.0 L 957.0 648.0 L 953.0 648.0 L 942.0 651.0 L 935.0 651.0 L 934.0 652.0 L 926.0 652.0 L 925.0 653.0 L 885.0 653.0 L 884.0 652.0 L 875.0 652.0 L 874.0 651.0 L 861.0 650.0 L 856.0 648.0 L 840.0 645.0 L 806.0 633.0 L 774.0 616.0 L 754.0 602.0 L 735.0 586.0 Z
    M 1020.0 630.0 L 1024.0 630.0 L 1029.0 632.0 L 1033.0 636.0 L 1035.0 641.0 L 1034.0 648.0 L 1026.0 655.0 L 1018.0 655.0 L 1010.0 647.0 L 1010.0 639.0 L 1014.0 633.0 Z
    M 534.0 583.0 L 525.0 573.0 L 514.0 565.0 L 499.0 559.0 L 491.0 558.0 L 490.0 557.0 L 482.0 557.0 L 481.0 556.0 L 460.0 557.0 L 459.0 558.0 L 442.0 561.0 L 428.0 566.0 L 407.0 577.0 L 426.0 614.0 L 428.0 621.0 L 425.0 622.0 L 410.0 617.0 L 407.0 615.0 L 387.0 608.0 L 378.0 603.0 L 359.0 627.0 L 353.0 637.0 L 343.0 659.0 L 339.0 675.0 L 339.0 691.0 L 344.0 703.0 L 356.0 715.0 L 369.0 721.0 L 386.0 725.0 L 412.0 726.0 L 413.0 725.0 L 423.0 725.0 L 424.0 724.0 L 435.0 723.0 L 451.0 719.0 L 477.0 709.0 L 497.0 698.0 L 509.0 689.0 L 527.0 671.0 L 535.0 659.0 L 541.0 647.0 L 544.0 638.0 L 545.0 622.0 L 546.0 621.0 L 545.0 620.0 L 545.0 610.0 L 541.0 596.0 Z
    M 555.0 532.0 L 545.0 524.0 L 524.0 511.0 L 505.0 502.0 L 484.0 495.0 L 472.0 492.0 L 467.0 492.0 L 460.0 490.0 L 452.0 490.0 L 451.0 489.0 L 413.0 489.0 L 412.0 490.0 L 404.0 490.0 L 403.0 491.0 L 397.0 491.0 L 371.0 497.0 L 340.0 508.0 L 314.0 521.0 L 292.0 535.0 L 278.0 529.0 L 265.0 529.0 L 256.0 532.0 L 251.0 535.0 L 241.0 546.0 L 237.0 555.0 L 236.0 569.0 L 240.0 582.0 L 245.0 589.0 L 252.0 595.0 L 264.0 600.0 L 278.0 600.0 L 287.0 597.0 L 293.0 593.0 L 301.0 584.0 L 306.0 572.0 L 306.0 560.0 L 323.0 549.0 L 349.0 536.0 L 376.0 526.0 L 392.0 522.0 L 410.0 520.0 L 411.0 519.0 L 421.0 519.0 L 422.0 518.0 L 442.0 518.0 L 443.0 519.0 L 453.0 519.0 L 454.0 520.0 L 460.0 520.0 L 461.0 521.0 L 475.0 523.0 L 491.0 528.0 L 509.0 536.0 L 527.0 547.0 L 538.0 556.0 L 554.0 535.0 Z
    M 268.0 552.0 L 277.0 553.0 L 282.0 558.0 L 284.0 563.0 L 282.0 571.0 L 277.0 576.0 L 274.0 577.0 L 265.0 576.0 L 260.0 571.0 L 258.0 565.0 L 260.0 558.0 L 264.0 554.0 Z
    M 580.0 394.0 L 578.0 400.0 L 578.0 416.0 L 579.0 420.0 L 586.0 432.0 L 598.0 441.0 L 604.0 443.0 L 615.0 444.0 L 616.0 443.0 L 625.0 442.0 L 631.0 439.0 L 641.0 430.0 L 649.0 433.0 L 652.0 433.0 L 668.0 439.0 L 689.0 450.0 L 706.0 463.0 L 723.0 480.0 L 726.0 478.0 L 742.0 459.0 L 725.0 441.0 L 702.0 424.0 L 677.0 411.0 L 657.0 404.0 L 648.0 402.0 L 646.0 398.0 L 646.0 395.0 L 640.0 385.0 L 632.0 378.0 L 620.0 373.0 L 606.0 373.0 L 599.0 375.0 L 592.0 379.0 L 584.0 387.0 Z
    M 612.0 395.0 L 619.0 397.0 L 625.0 404.0 L 625.0 413.0 L 621.0 418.0 L 615.0 421.0 L 607.0 420.0 L 601.0 414.0 L 600.0 411.0 L 600.0 406.0 L 602.0 401.0 L 606.0 397.0 Z
    M 388.0 387.0 L 383.0 402.0 L 384.0 415.0 L 389.0 426.0 L 399.0 436.0 L 410.0 441.0 L 421.0 442.0 L 422.0 441.0 L 430.0 440.0 L 438.0 436.0 L 446.0 429.0 L 450.0 431.0 L 453.0 431.0 L 456.0 433.0 L 464.0 435.0 L 474.0 440.0 L 476.0 440.0 L 494.0 449.0 L 507.0 457.0 L 522.0 468.0 L 543.0 488.0 L 559.0 508.0 L 573.0 531.0 L 565.0 542.0 L 561.0 552.0 L 560.0 564.0 L 559.0 565.0 L 560.0 575.0 L 563.0 585.0 L 568.0 594.0 L 579.0 605.0 L 585.0 609.0 L 592.0 612.0 L 600.0 613.0 L 601.0 614.0 L 614.0 614.0 L 625.0 611.0 L 634.0 606.0 L 644.0 597.0 L 648.0 592.0 L 654.0 579.0 L 671.0 584.0 L 691.0 583.0 L 699.0 580.0 L 707.0 575.0 L 720.0 561.0 L 725.0 550.0 L 726.0 542.0 L 727.0 541.0 L 727.0 529.0 L 726.0 528.0 L 725.0 520.0 L 720.0 509.0 L 714.0 501.0 L 701.0 491.0 L 686.0 486.0 L 672.0 486.0 L 661.0 489.0 L 650.0 495.0 L 640.0 505.0 L 636.0 511.0 L 631.0 523.0 L 623.0 519.0 L 615.0 517.0 L 600.0 517.0 L 599.0 518.0 L 588.0 499.0 L 573.0 478.0 L 546.0 450.0 L 527.0 435.0 L 504.0 421.0 L 480.0 410.0 L 475.0 409.0 L 464.0 404.0 L 455.0 402.0 L 453.0 400.0 L 453.0 396.0 L 448.0 385.0 L 437.0 375.0 L 424.0 370.0 L 409.0 371.0 L 396.0 378.0 Z
    M 416.0 393.0 L 424.0 394.0 L 428.0 397.0 L 431.0 402.0 L 430.0 412.0 L 425.0 417.0 L 420.0 419.0 L 413.0 418.0 L 406.0 410.0 L 407.0 400.0 L 413.0 394.0 Z
    M 1023.0 285.0 L 1017.0 281.0 L 1008.0 278.0 L 995.0 278.0 L 988.0 280.0 L 980.0 285.0 L 975.0 290.0 L 970.0 299.0 L 970.0 301.0 L 968.0 303.0 L 956.0 305.0 L 932.0 312.0 L 904.0 325.0 L 891.0 333.0 L 879.0 342.0 L 865.0 355.0 L 846.0 379.0 L 840.0 389.0 L 831.0 409.0 L 822.0 442.0 L 821.0 443.0 L 819.0 442.0 L 800.0 442.0 L 788.0 445.0 L 773.0 453.0 L 762.0 464.0 L 754.0 478.0 L 751.0 489.0 L 750.0 502.0 L 751.0 503.0 L 752.0 517.0 L 755.0 527.0 L 761.0 539.0 L 769.0 550.0 L 784.0 565.0 L 809.0 582.0 L 828.0 591.0 L 853.0 599.0 L 869.0 601.0 L 870.0 602.0 L 894.0 603.0 L 895.0 602.0 L 903.0 602.0 L 911.0 600.0 L 924.0 594.0 L 933.0 585.0 L 938.0 573.0 L 938.0 559.0 L 937.0 558.0 L 936.0 547.0 L 931.0 532.0 L 921.0 512.0 L 913.0 500.0 L 891.0 478.0 L 893.0 473.0 L 910.0 450.0 L 927.0 434.0 L 945.0 421.0 L 969.0 408.0 L 999.0 396.0 L 1002.0 396.0 L 1009.0 393.0 L 1037.0 386.0 L 1074.0 381.0 L 1080.0 376.0 L 1082.0 372.0 L 1082.0 363.0 L 1080.0 359.0 L 1073.0 353.0 L 1062.0 353.0 L 1061.0 354.0 L 1040.0 356.0 L 1039.0 357.0 L 1034.0 357.0 L 1029.0 359.0 L 1020.0 360.0 L 1004.0 364.0 L 997.0 367.0 L 994.0 367.0 L 982.0 372.0 L 979.0 372.0 L 969.0 377.0 L 962.0 379.0 L 940.0 390.0 L 912.0 409.0 L 895.0 424.0 L 884.0 436.0 L 868.0 459.0 L 869.0 461.0 L 875.0 465.0 L 874.0 466.0 L 867.0 462.0 L 845.0 476.0 L 842.0 479.0 L 822.0 490.0 L 821.0 489.0 L 837.0 448.0 L 836.0 446.0 L 829.0 445.0 L 826.0 443.0 L 829.0 442.0 L 830.0 443.0 L 839.0 443.0 L 847.0 445.0 L 851.0 444.0 L 852.0 436.0 L 857.0 420.0 L 870.0 395.0 L 879.0 383.0 L 898.0 364.0 L 917.0 351.0 L 943.0 339.0 L 968.0 332.0 L 974.0 332.0 L 983.0 341.0 L 995.0 346.0 L 1007.0 346.0 L 1014.0 344.0 L 1021.0 340.0 L 1029.0 332.0 L 1035.0 319.0 L 1035.0 305.0 L 1034.0 301.0 L 1028.0 290.0 Z
    M 997.0 300.0 L 1005.0 300.0 L 1009.0 302.0 L 1012.0 305.0 L 1014.0 310.0 L 1014.0 314.0 L 1012.0 319.0 L 1008.0 323.0 L 1003.0 325.0 L 995.0 323.0 L 989.0 316.0 L 990.0 306.0 Z" fill="#ffffff" fill-rule="evenodd"/>
</svg>
